<?xml version="1.0" encoding="UTF-8" standalone="no"?>
<svg xmlns="http://www.w3.org/2000/svg" version="1.1" viewBox="0 0 1000 1000" height="1000" width="1000"><path style="fill:#f5fafd" d="M 500,0 A 500,500 0 0 0 254.19922,65.296875 L 144.72266,10.558594 a 50.005,50.005 0 0 0 -0.0117,-0.0059 C 129.72492,3.06437 113.09126,-0.540704 96.349609,0.072266 a 50.005,50.005 0 0 0 -0.002,0 C 25.57032,2.666302 -21.103971,81.35275 10.552734,144.70898 a 50.005,50.005 0 0 0 0.0059,0.0137 l 54.578125,109.1582 A 500,500 0 0 0 0,500 500,500 0 0 0 500,999.99995 500,500 0 0 0 732.39844,942.39062 c 27.46513,34.99563 70.01305,57.60933 117.60156,57.60933 82.31247,0 150,-67.68748 150,-149.99995 0,-47.60969 -22.63362,-90.1762 -57.65625,-117.64062 A 500,500 0 0 0 1000,500 500,500 0 0 0 500,0 Z" /> <path style="fill:#626c8a" d="M 500,50 A 450.00003,450.00003 0 0 0 255.88281,122.03906 L 122.36133,55.279297 A 50.005,50.005 0 0 0 98.179688,50.039062 50.005,50.005 0 0 0 55.279297,122.36133 L 122.24023,256.2832 A 450.00003,450.00003 0 0 0 50,500 450.00003,450.00003 0 0 0 500,950 450.00003,450.00003 0 0 0 752.60547,871.89062 C 762.75537,916.23038 802.87726,950 850,950 c 54.63624,0 100,-45.36376 100,-100 0,-46.99283 -33.58491,-87.02012 -77.74414,-97.30664 A 450.00003,450.00003 0 0 0 950,500 450.00003,450.00003 0 0 0 500,50 Z" /><path style="fill:#f5fafd" d="m 100,100 150,300 360,270 -60,30 H 400 l 220,100 59.31055,-74.13867 123.17187,108.68164 A 50,50 0 0 0 800,850 a 50,50 0 0 0 50,50 50,50 0 0 0 50,-50 50,50 0 0 0 -50,-50 50,50 0 0 0 -15.43555,2.50781 L 725.86133,679.31055 800,620 700,400 V 550 L 670,610 400,250 Z" /></svg>
