<?xml version="1.0" encoding="UTF-8" standalone="no"?>
<svg xmlns="http://www.w3.org/2000/svg" width="1000" height="300" viewBox="0 0 1000 300" version="1.1"><path style="fill:#f5fafd" d="M 60,0 C 57.330668,8.1749916 55.553183,13.563006 54.119141,17.001953 49.646362,15.449751 44.857326,12.653382 39.679688,7.875 45.457142,14.310264 49.245633,18.556204 51.501953,21.519531 50.018071,22.826861 48.518325,21.864067 46,20 c 5.108731,27.42984 19.692225,43.91095 0,100 7.511692,20.18084 10.030225,32.05972 9.992188,39.68945 -6.094979,3.47576 -14.867135,7.80072 -28.216797,13.97071 11.394308,-3.2814 19.473099,-5.38921 27.46289,-7.77539 C 53.395021,172.64483 48.643143,174.5697 46,180 c 9.417785,10.03111 8.456339,35.9307 14,60 8.080135,-32.7077 10.164732,-38.06263 16,-40 -2.585972,-8.61991 -7.876793,-22.86678 -11.417969,-37.06641 8.189499,-2.76456 17.449886,-6.34285 30.814453,-12.14843 35.056286,-33.19734 62.777816,-49.30577 69.550786,-35.53711 3.97899,-7.16762 5.16447,-16.971456 13.7539,-24.732425 5.75079,3.525726 13.15621,8.512452 23.52344,15.824215 -8.0679,-7.773237 -13.74389,-13.507322 -19.45703,-18.947262 3.07103,-2.006354 6.83703,-3.799121 11.55273,-5.267578 -6.05931,1.278764 -10.63842,2.238524 -14.11914,2.857422 C 172.40816,77.719578 163.89057,70.534845 148.60352,59.214844 102.32564,45.453884 74.515207,29.501843 83.052734,16.751953 76.086406,16.869141 68.480415,19.690193 59.591797,18.351562 58.433544,13.446525 58.30559,7.5165199 60,0 Z m 9.103516,35.369141 C 88.109506,40.171725 107.51522,46.127244 136.60352,80 c 16.32754,2.894771 20.93613,0.996529 29.12109,3.867188 C 147.57376,101.02932 137.70654,119.78277 83.396484,130 71.464288,144.19319 72.049127,148.69542 62.875,155.33789 59.716239,139.36449 59.875896,124.77316 70,120 58.778405,73.0417 58.689513,40.98123 74,42 72.650524,39.750873 70.907943,37.604368 69.103516,35.369141 Z" /><path style="fill:#f5fafd" d="m 240,0 c 2.06254,5.1459128 4.5747,10.404496 7.17188,15.564453 C 244.3996,34.446661 243.3972,52.121063 236,60 c 5.38077,11.054707 19.52871,7.534361 0,60 19.69222,56.08905 5.10873,72.57016 0,100 5.94773,-4.40252 6.21851,-3.83129 14,20 -5.46517,-24.24388 8,-32 14,-42 -15.31049,1.01877 -15.2216,-31.0417 -4,-78 -15.34782,-7.23596 -7.81174,-37.017922 -0.49609,-60 16.86187,10.394123 14.54008,-3.031831 36.36132,34.763672 -3.16987,-15.49038 -16.1408,-38.445875 -19.50976,-63.792969 -4.64056,0.955382 -9.93607,-3.626431 -22.76758,-16.847656 C 252.51674,10.038871 251.36728,5.5346198 250,0 249.34185,2.8575421 248.78037,5.7415727 248.27734,8.6210938 245.76358,6.003733 243.03193,3.1532203 240,0 Z m 110,0 c -7.78149,23.83129 -8.05227,24.40252 -14,20 1.00299,5.385276 2.37112,10.34766 3.77344,15.271484 -2.92224,0.139309 -6.53315,0.498031 -12.2461,2.402344 C 341.80586,44.18136 312.20199,67.04029 295,90 c 28.84135,-17.41433 37.63673,-23.262089 43.13281,-20.505859 1.94367,-4.676023 4.2363,-9.156287 6.70313,-13.457032 C 347.26292,71.150268 346.58518,89.850396 336,120 c 19.52871,52.46564 5.38077,48.94529 0,60 9.41778,10.03111 8.45634,35.9307 14,60 8.08013,-32.7077 10.16473,-38.06263 16,-40 -6,-20 -26.58835,-70.29332 -6,-80 -11.2216,-46.9583 -11.31049,-79.01877 4,-78 -1.43126,-2.385438 -3.29424,-4.648872 -5.2168,-7.033203 5.98424,-8.287123 11.51704,-15.664933 14.70508,-22.041016 C 364.92429,21.48977 359.1925,26.704955 354.95312,29.919922 350.2848,23.190597 346.71182,14.586614 350,0 Z m -87.19336,49.908203 c 0.77209,4.075175 0.11924,7.034884 -2.75391,8.394531 0.95082,-2.949519 1.88212,-5.76769 2.75391,-8.394531 z" /><path style="fill:#f5fafd" d="M 649.64453,-0.97070312 C 653.07157,7.5795369 657.69164,16.376248 661.93359,24.566406 659.9126,39.876821 658.20056,53.395635 652,60 c 5.38077,11.054707 19.52871,7.534361 0,60 19.69222,56.08905 5.10873,72.57016 0,100 3.41904,-2.53078 4.96642,-3.38824 7.13867,0.8418 -3.39329,6.58813 -6.8193,13.45535 -9.49414,20.1289 4.82778,-5.02091 8.81232,-9.18322 12.37695,-12.86914 1.09331,3.12135 2.3456,6.89753 3.97852,11.89844 -1.32193,-5.86419 -1.52747,-10.75707 -1.00781,-14.95703 C 676.57055,213.19904 681.57438,209.08887 686,210 c 2.5925,-19.50523 10.85778,-37.57703 15.98047,-51.9375 16.68348,19.12934 36.1298,36.41817 24.01953,41.9375 21.21321,7.07107 14.14309,-7.07175 45.96289,24.74805 -7.07106,-14.14213 -25.54099,-32.95689 -35.35547,-56.56836 -4.80267,2.40849 -12.13475,-1.7567 -33.15039,-14.46485 0.85544,-2.65347 1.57545,-5.17349 2.05274,-7.50586 -1.35688,2.35019 -2.61044,4.48103 -3.79102,6.45313 -2.58533,-1.56459 -5.24575,-3.17668 -8.24609,-4.98828 1.99888,2.66793 4.17444,5.33295 6.41992,7.97265 -16.13746,26.28375 -15.50366,15.60264 -31.53711,25.83008 C 666.95437,167.70793 669.74549,146.17286 676,120 661.10031,112.97532 667.7699,84.723499 674.86523,62.050781 685.81472,66.793483 686.536,60.927485 705.50977,93.791016 702.3399,78.300633 689.36896,55.347094 686,30 682.51791,30.716879 678.69279,28.339454 671.58984,21.537109 670.05159,16.138301 668.26679,9.1757814 666,0 c -1.02438,4.4476277 -1.82504,8.9570197 -2.51172,13.417969 -3.8718,-3.9859773 -8.37353,-8.6996174 -13.84375,-14.38867212 z M 783.13281,11.955078 c -31.8198,31.819805 -24.74968,17.67698 -45.96289,24.748047 14.27852,6.507532 -15.3234,29.366459 -32.52539,52.326172 28.84135,-17.414333 37.63673,-23.26209 43.13281,-20.505859 9.81448,-23.611464 28.28441,-42.426224 35.35547,-56.56836 z M 668.43555,182.21289 c 4.62798,1.23676 5.13585,5.41886 3.38867,11.41797 -1.70429,-2.68069 -2.82594,-6.52916 -3.38867,-11.41797 z" /><path style="fill:#f5fafd" d="m 900,0 c -7.78149,23.83129 -8.05227,24.40252 -14,20 4.64569,24.943673 17.11725,40.843437 4.5332,85.69727 -21.30405,-9.745288 -31.77363,-19.665229 -26.08398,-28.162114 -11.66026,0.19615 -25.10982,7.97992 -43.37305,-8.875 16.74776,18.65462 17.10687,19.17537 10.32031,22.125 18.76874,6.627815 35.12797,6.30592 57.02149,21.943364 -0.748,2.35634 -1.53656,4.76097 -2.41797,7.27148 19.52871,52.46564 5.38077,48.94529 0,60 9.41778,10.03111 8.45634,35.9307 14,60 8.08013,-32.7077 10.16473,-38.06263 16,-40 -5.21345,-17.37817 -21.43525,-57.62215 -12.09375,-74.24414 4.44752,4.28845 9.12808,9.24687 14.09375,15.0293 29.87167,5.29606 20.48969,-5.49029 65.62109,26.33984 C 963.48025,147.71974 958.31089,140.9641 930,120 922.22452,117.68792 915.02492,115.31065 908.37695,112.90039 898.82989,69.857507 899.47716,41.033641 914,42 908,32 894.53483,24.24388 900,0 Z" /><path style="fill:#f5fafd" d="M 429.67969,-2.125 C 446.42745,16.52962 446.78656,17.05037 440,20 c 2.12186,0.749295 4.20571,1.391622 6.27734,1.996094 C 444.09118,38.353341 442.5445,53.029296 436,60 c 1.35314,2.779995 3.25987,4.638569 5.04688,6.697266 -5.31355,-1.480985 -11.10665,-3.061195 -18.21876,-5.109375 9.21392,4.258513 16.2292,7.632343 21.71485,10.46289 C 447.31425,78.692723 446.98399,90.490509 436,120 c 19.69222,56.08905 5.10873,72.57016 0,100 5.94773,-4.40252 6.21851,-3.83129 14,20 -5.46517,-24.24388 8,-32 14,-42 -15.31049,1.01877 -15.2216,-31.0417 -4,-78 -11.60697,-5.47227 -10.12614,-23.844801 -5.55078,-42.416016 12.94419,8.084225 10.73262,11.882683 24,27.664066 58.42066,10.99055 65.40293,31.86079 86.60351,50 -0.83883,-7.35215 -0.20892,-7.29973 24.32032,-2.12305 C 565.64465,145.73604 565.66025,130.19616 560,120 553.22703,133.76866 525.50551,117.66218 490.44922,84.464844 475.15855,77.82255 465.22787,74.086966 456.14648,71.164062 459.54126,59.020474 463.77335,47.42216 466,40 c -3.85583,-1.280175 -6.08215,-4.107048 -9.47461,-15.277344 19.84775,4.968051 39.67404,9.872378 70.07813,45.277344 29.87167,5.29606 20.48969,-5.490286 65.62109,26.339844 -20.14084,-19.40526 -25.3102,-26.1609 -53.62109,-47.125 C 492.32564,35.453884 464.5152,19.501843 473.05273,6.7519531 466.7688,6.857662 459.96267,9.160035 452.16602,8.6289062 451.48137,5.9310131 450.79022,3.1987263 450,0 449.37815,2.699945 448.84721,5.4235066 448.36523,8.1445312 442.70766,7.0557166 436.53316,4.1999892 429.67969,-2.125 Z" /><path style="fill:#f5fafd" d="m 80.037109,248.98633 a 1.0001,1.0001 0 0 0 -1.007812,1.25586 l 10,40 a 1.0001,1.0001 0 0 0 1.941406,0 L 100,254.125 l 9.0293,36.11719 a 1.0001,1.0001 0 0 0 1.9414,0 l 10,-40 a 1.0004571,1.0004571 0 1 0 -1.9414,-0.48438 L 110,285.875 100.9707,249.75781 a 1.0001,1.0001 0 0 0 -1.941403,0 L 90,285.875 80.970703,249.75781 a 1.0001,1.0001 0 0 0 -0.933594,-0.77148 z" /><path style="fill:#f5fafd" d="m 280,249 a 1.0001,1.0001 0 0 0 -1,1 v 40 a 1.0001,1.0001 0 0 0 1,1 h 40 a 1.0001,1.0001 0 1 0 0,-2 h -39 v -18 h 29 c 1.35232,0.0191 1.35232,-2.01913 0,-2 h -29 v -18 h 39 a 1.0001,1.0001 0 1 0 0,-2 z" /><path style="fill:#f5fafd" d="m 500.00781,249 a 1.0001,1.0001 0 0 0 -0.90234,0.55273 l -20,40 a 1.0001172,1.0001172 0 1 0 1.78906,0.89454 L 490.61719,271 h 18.76562 l 9.72266,19.44727 a 1.0001172,1.0001172 0 1 0 1.78906,-0.89454 l -20,-40 A 1.0001,1.0001 0 0 0 500.00781,249 Z M 500,252.23633 508.38281,269 h -16.76562 z" /><path style="fill:#f5fafd" d="M 919.98438,248.98633 A 1.0001,1.0001 0 0 0 919,250 v 37.58594 L 880.70703,249.29297 A 1.0001,1.0001 0 0 0 879,250 v 40 a 1.0001,1.0001 0 1 0 2,0 v -37.58594 l 38.29297,38.29297 A 1.0001,1.0001 0 0 0 921,290 v -40 a 1.0001,1.0001 0 0 0 -1.01562,-1.01367 z" /><path style="fill:#f5fafd" d="m 685,249 a 1.0001,1.0001 0 0 0 -1,1 v 40 a 1.0001,1.0001 0 1 0 2,0 v -39 h 19 c 4.98241,0 9,4.01759 9,9 0,4.98241 -4.01759,9 -9,9 h -10 a 1.0001,1.0001 0 1 0 0,2 h 10 c 6.06329,0 11,-4.93671 11,-11 0,-6.06329 -4.93671,-11 -11,-11 z" /></svg>